<?xml version="1.0" encoding="utf-8"?>
<svg version="1.1" xmlns:xlink="http://www.w3.org/1999/xlink" width="60px" height="60px" xmlns="http://www.w3.org/2000/svg">
  <defs>
    <pattern id="BGPattern" patternUnits="userSpaceOnUse" alignment="0 0" imageRepeat="None" />
    <mask fill="white" id="Clip12">
      <path d="M 0 60  L 0 0  L 60 0  L 60 60  L 0 60  Z " fill-rule="evenodd" />
    </mask>
  </defs>
  <g transform="matrix(1 0 0 1 -1460 -121 )">
    <path d="M 0 60  L 0 0  L 60 0  L 60 60  L 0 60  Z " fill-rule="nonzero" fill="rgba(242, 242, 242, 1)" stroke="none" transform="matrix(1 0 0 1 1460 121 )" class="fill" />
    <path d="M 0 60  L 0 0  L 60 0  L 60 60  L 0 60  Z " stroke-width="6" stroke-dasharray="0" stroke="rgba(121, 121, 121, 1)" fill="none" transform="matrix(1 0 0 1 1460 121 )" class="stroke" mask="url(#Clip12)" />
    <path d="M 58.939339828220184 1.0606601717798212  L 1.0606601717798212 58.939339828220184  M 1.0606601717798212 1.0606601717798212  L 58.939339828220184 58.939339828220184  " stroke-width="3" stroke-dasharray="0" stroke="rgba(121, 121, 121, 1)" fill="none" transform="matrix(1 0 0 1 1460 121 )" class="stroke" />
  </g>
</svg>