<?xml version="1.0" encoding="utf-8"?>
<svg version="1.1" xmlns:xlink="http://www.w3.org/1999/xlink" width="480px" height="480px" xmlns="http://www.w3.org/2000/svg">
  <defs>
    <pattern id="BGPattern" patternUnits="userSpaceOnUse" alignment="0 0" imageRepeat="None" />
    <mask fill="white" id="Clip2">
      <path d="M 0 480  L 0 0  L 480 0  L 480 480  L 0 480  Z " fill-rule="evenodd" />
    </mask>
  </defs>
  <g transform="matrix(1 0 0 1 -112 -1222 )">
    <path d="M 0 480  L 0 0  L 480 0  L 480 480  L 0 480  Z " fill-rule="nonzero" fill="rgba(242, 242, 242, 1)" stroke="none" transform="matrix(1 0 0 1 112 1222 )" class="fill" />
    <path d="M 0 480  L 0 0  L 480 0  L 480 480  L 0 480  Z " stroke-width="6" stroke-dasharray="0" stroke="rgba(121, 121, 121, 1)" fill="none" transform="matrix(1 0 0 1 112 1222 )" class="stroke" mask="url(#Clip2)" />
    <path d="M 478.93933982822017 1.0606601717798212  L 1.0606601717798212 478.93933982822017  M 1.0606601717798212 1.0606601717798212  L 478.93933982822017 478.93933982822017  " stroke-width="3" stroke-dasharray="0" stroke="rgba(121, 121, 121, 1)" fill="none" transform="matrix(1 0 0 1 112 1222 )" class="stroke" />
  </g>
</svg>