<?xml version="1.0" encoding="utf-8"?>
<svg version="1.1" xmlns:xlink="http://www.w3.org/1999/xlink" width="50px" height="50px" xmlns="http://www.w3.org/2000/svg">
  <defs>
    <pattern id="BGPattern" patternUnits="userSpaceOnUse" alignment="0 0" imageRepeat="None" />
    <mask fill="white" id="Clip15">
      <path d="M 0 50  L 0 0  L 50 0  L 50 50  L 0 50  Z " fill-rule="evenodd" />
    </mask>
  </defs>
  <g transform="matrix(1 0 0 1 -1870 0 )">
    <path d="M 0 50  L 0 0  L 50 0  L 50 50  L 0 50  Z " fill-rule="nonzero" fill="rgba(242, 242, 242, 1)" stroke="none" transform="matrix(1 0 0 1 1870 0 )" class="fill" />
    <path d="M 0 50  L 0 0  L 50 0  L 50 50  L 0 50  Z " stroke-width="6" stroke-dasharray="0" stroke="rgba(121, 121, 121, 1)" fill="none" transform="matrix(1 0 0 1 1870 0 )" class="stroke" mask="url(#Clip15)" />
    <path d="M 48.93933982822018 1.0606601717798212  L 1.0606601717798212 48.93933982822018  M 1.0606601717798212 1.0606601717798212  L 48.93933982822018 48.93933982822018  " stroke-width="3" stroke-dasharray="0" stroke="rgba(121, 121, 121, 1)" fill="none" transform="matrix(1 0 0 1 1870 0 )" class="stroke" />
  </g>
</svg>